<svg xmlns="http://www.w3.org/2000/svg" xmlns:svg="http://www.w3.org/2000/svg" id="Layer_1" width="32" height="32" style="enable-background:new 0 0 32 32" version="1.1" viewBox="0 0 32 32" xml:space="preserve"><metadata id="metadata9"/><path id="path2" d="M 23.071068,6.1005051 16,13.171573 8.9289322,6.1005051 c -0.7806459,-0.7806459 -2.0477813,-0.7806459 -2.8284271,0 -0.7806459,0.7806458 -0.7806459,2.0477812 0,2.8284271 L 13.171573,16 6.1005051,23.071068 c -0.7806459,0.780646 -0.7806459,2.047781 0,2.828427 0.7806458,0.780646 2.0477812,0.780646 2.8284271,0 L 16,18.828427 l 7.071068,7.071068 c 0.780646,0.780646 2.047781,0.780646 2.828427,0 0.780646,-0.780646 0.780646,-2.047781 0,-2.828427 L 18.828427,16 25.899495,8.9289322 c 0.780646,-0.7806459 0.780646,-2.0477813 0,-2.8284271 -0.780646,-0.7806459 -2.047781,-0.7806459 -2.828427,0 z"/></svg>