<svg xmlns="http://www.w3.org/2000/svg" xmlns:bx="https://boxy-svg.com" viewBox="0 0 1024 1024"><defs><linearGradient id="gradient-0" x1="512" x2="512" y1="250" y2="774.001" gradientTransform="matrix(1, 0, 0, 1, 0, -0.000488)" gradientUnits="userSpaceOnUse"><stop offset="0" style="stop-color:#fff"/><stop offset="1" style="stop-color:#9e9e9e"/></linearGradient><linearGradient id="gradient-2" x1="512" x2="512" y1="0" y2="1024" gradientUnits="userSpaceOnUse"><stop offset="0" style="stop-color:#7084e6"/><stop offset="1" style="stop-color:#00faff"/></linearGradient><linearGradient id="gradient-1" x1="512" x2="512" y1="250" y2="774.001" gradientTransform="matrix(1, 0, 0, 1, 0, -0.000488)" gradientUnits="userSpaceOnUse"><stop offset="0" style="stop-color:#9e9e9e"/><stop offset="1" style="stop-color:#fff"/></linearGradient><linearGradient id="bg-bright" bx:pinned="true"><title>bg-bright</title><stop style="stop-color:#00faff"/></linearGradient><linearGradient id="bg-dark" bx:pinned="true"><stop style="stop-color:#7084e6"/></linearGradient></defs><rect width="1024" height="1024" style="fill:url(#gradient-2)"/><path style="fill:rgba(0,0,0,.44);filter:none;mix-blend-mode:multiply" d="M 215.219 250.75 H 1027.59 V 888.18 H 150.219 V 315.75 A 65 65 0 0 1 215.219 250.75 Z" transform="matrix(0.707107, 0.707107, -0.707107, 0.707107, 711.609253, -6.719423)" bx:shape="rect 150.219 250.75 877.371 637.43 65 0 0 0 1@acb25190"/><path d="M 752.712 447.81 C 730.441 334.821 631.21 250 512 250 C 417.352 250 335.15 303.71 294.211 382.31 C 195.636 392.79 119 476.301 119 577.5 C 119 685.902 207.099 774.001 315.5 774.001 L 741.25 774.001 C 831.64 774.001 905 700.64 905 610.25 C 905 523.79 837.862 453.703 752.712 447.81 Z" style="stroke-width:5px;stroke-linecap:round;fill:url(#gradient-0);stroke:url(#gradient-1)" bx:origin="0.480835 0.447772"/></svg>