<svg xmlns="http://www.w3.org/2000/svg" xmlns:svg="http://www.w3.org/2000/svg" id="Layer_1" width="32" height="32" style="enable-background:new 0 0 32 32" version="1.1" viewBox="0 0 32 32" xml:space="preserve"><metadata id="metadata9"/><path id="path2" d="M 28,14 18,14 18,4 c 0,-1.104 -0.896,-2.0000001 -2,-2 -1.104,-1e-7 -2,0.896 -2,2 l 0,10 -10,0 c -1.1040001,0 -1.9999999,0.896 -1.9999999,2 -2e-7,1.104 0.8959999,2 2,2 L 14,18 v 10 c 0,1.104 0.896,2 2,2 1.104,0 2,-0.896 2,-2 l 0,-10 10,0 c 1.104,0 2,-0.896 2,-2 0,-1.104 -0.896,-2 -2,-2 z"/></svg>