<svg xmlns="http://www.w3.org/2000/svg" xmlns:svg="http://www.w3.org/2000/svg" id="Capa_1" width="43.329" height="43.329" x="0" y="0" version="1.1" viewBox="0 0 43.329 43.329" style="enable-background:new 0 0 43.329 43.329" xml:space="preserve"><metadata id="metadata993"/><g id="g956"><path id="path952" d="m 42.657,37.547 c 0,-1.75 -1.419,-3.171 -3.172,-3.171 H 3.842 c -1.751,0 -3.171,1.419 -3.171,3.171 v 2.611 c 0,1.751 1.42,3.171 3.171,3.171 h 35.645 c 1.751,0 3.171,-1.42 3.171,-3.171 z"/><path id="path950" d="m 24.63919,1.22925 c -1.645,-1.639 -4.305,-1.639 -5.951,0 l -14.0819999,14.014 c -0.91,0.906 -1.186,2.287 -0.695,3.474 0.491,1.187 1.646,1.976 2.932,1.976 H 12.72219 v 7.699 c 0,1.751 1.436,3.196 3.187,3.196 h 11.511 c 1.752,0 3.208,-1.444 3.208,-3.196 l 0,-7.698 h 5.858 c 1.284,0 2.441,-0.79 2.931,-1.976 0.49,-1.187 0.216,-2.561 -0.694,-3.466 z"/></g></svg>