<svg xmlns="http://www.w3.org/2000/svg" xmlns:svg="http://www.w3.org/2000/svg" id="svg8" width="48" height="48" version="1.1" viewBox="0 0 12.7 12.7"><metadata id="metadata5"/><g id="layer1" transform="translate(0,-284.3)"><path style="fill:#000;fill-opacity:1;fill-rule:nonzero;stroke:none;stroke-width:.31229988;stroke-opacity:1" id="rect834" d="m 4.7217142,290.07022 -4.2630113,4.26236 c -0.61169726,0.61183 -0.61169726,1.59697 0,2.20881 0.6116972,0.61141 1.5969681,0.61141 2.208665,0 l 4.2593538,-4.25987 a 5.4652436,5.4652436 0 0 1 -2.2050075,-2.2113 z"/><path style="fill:#000;fill-opacity:1;fill-rule:nonzero;stroke:none;stroke-width:.24260694;stroke-opacity:1" id="path848" d="m 8.7576244,284.30028 a 3.9423626,3.9423626 0 0 0 -3.9423628,3.94235 3.9423626,3.9423626 0 0 0 3.9423628,3.94234 A 3.9423626,3.9423626 0 0 0 12.7,288.24263 3.9423626,3.9423626 0 0 0 12.60899,287.42135 l -1.65135,1.66575 -2.3725154,-0.636 -0.6302093,-2.3934 1.6484954,-1.6627 A 3.9423626,3.9423626 0 0 0 8.7576033,284.3 Z"/></g></svg>